<?xml version="1.0" encoding="UTF-8" standalone="no"?>
<!-- Created with Inkscape (http://www.inkscape.org/) -->

<svg
   width="128mm"
   height="128mm"
   viewBox="0 0 128 128"
   version="1.1"
   id="svg21943"
   xmlns="http://www.w3.org/2000/svg"
   xmlns:svg="http://www.w3.org/2000/svg">
  <defs
     id="defs21940" />
  <g
     id="layer1">
    <g
       style="fill:none"
       id="g20032"
       transform="matrix(8.8899661,0,0,8.8899661,-7.1197306,-7.1197306)">
      <path
         fill="#ff0000"
         d="M 14.712,4.633 A 1.754,1.754 0 0 0 13.478,3.399 C 12.382,3.11 8,3.11 8,3.11 8,3.11 3.618,3.11 2.522,3.399 1.922,3.56 1.45,4.033 1.288,4.633 1,5.728 1,8 1,8 c 0,0 0,2.283 0.288,3.367 0.162,0.6 0.635,1.073 1.234,1.234 C 3.618,12.89 8,12.89 8,12.89 c 0,0 4.382,0 5.478,-0.289 a 1.754,1.754 0 0 0 1.234,-1.234 C 15,10.272 15,8 15,8 15,8 15,5.728 14.712,4.633 Z"
         id="path20020" />
      <path
         fill="#ffffff"
         d="M 6.593,10.11 10.237,8.012 6.593,5.902 Z"
         id="path20022" />
    </g>
  </g>
</svg>
