<?xml version="1.0" encoding="UTF-8" standalone="no"?>
<!-- Created with Inkscape (http://www.inkscape.org/) -->

<svg
   width="128mm"
   height="128mm"
   viewBox="0 0 128 128"
   version="1.1"
   id="svg13627"
   xmlns:xlink="http://www.w3.org/1999/xlink"
   xmlns="http://www.w3.org/2000/svg"
   xmlns:svg="http://www.w3.org/2000/svg">
  <defs
     id="defs13624">
    <linearGradient
       xlink:href="#linearGradient6704"
       id="linearGradient6706"
       x1="-79.951172"
       y1="1655.3832"
       x2="-29.524923"
       y2="1655.3832"
       gradientUnits="userSpaceOnUse"
       gradientTransform="matrix(1.4469191,0,0,1.4469191,158.1113,-2341.674)" />
    <linearGradient
       id="linearGradient6704">
      <stop
         style="stop-color:#ff8066;stop-opacity:1;"
         offset="0"
         id="stop6700" />
      <stop
         style="stop-color:#ff4d4d;stop-opacity:1;"
         offset="1"
         id="stop6702" />
    </linearGradient>
    <radialGradient
       xlink:href="#linearGradient7126"
       id="radialGradient7128"
       cx="-85.943855"
       cy="1679.8514"
       fx="-85.943855"
       fy="1679.8514"
       r="15.054791"
       gradientUnits="userSpaceOnUse"
       gradientTransform="matrix(1.4469191,0,0,1.4469191,158.1113,-2341.674)" />
    <linearGradient
       id="linearGradient7126">
      <stop
         style="stop-color:#ff4d4d;stop-opacity:1;"
         offset="0"
         id="stop7122" />
      <stop
         style="stop-color:#e33b4c;stop-opacity:1;"
         offset="1"
         id="stop7124" />
    </linearGradient>
    <radialGradient
       xlink:href="#linearGradient7341"
       id="radialGradient7343"
       cx="-44.141235"
       cy="1690.5212"
       fx="-44.141235"
       fy="1690.5212"
       r="15.054791"
       gradientUnits="userSpaceOnUse"
       gradientTransform="matrix(1.4469191,0,0,1.4469191,158.0735,-2341.7778)" />
    <linearGradient
       id="linearGradient7341">
      <stop
         style="stop-color:#cc295f;stop-opacity:1;"
         offset="0"
         id="stop7337" />
      <stop
         style="stop-color:#e03b5f;stop-opacity:1;"
         offset="1"
         id="stop7339" />
    </linearGradient>
  </defs>
  <path
     id="path21875"
     style="fill:url(#linearGradient6706);fill-opacity:1;stroke:none;stroke-width:1.68711;stroke-linecap:round;stroke-linejoin:round"
     d="M 47.605363 1.8432983 C 45.071352 1.8261441 42.428418 3.4220645 42.428418 7.3018799 L 42.428418 68.938428 C 42.693643 69.053044 42.957942 69.169247 43.217517 69.293962 C 43.535082 69.446536 43.848293 69.606237 44.156995 69.773519 C 44.465695 69.940801 44.770214 70.115463 45.0696 70.297001 C 45.368988 70.478539 45.663643 70.666997 45.953267 70.862341 C 46.242893 71.057687 46.527033 71.259803 46.806445 71.468506 C 47.085858 71.677209 47.360383 71.892334 47.629134 72.113944 C 47.897886 72.335556 48.161109 72.563553 48.41875 72.797624 C 48.676391 73.031693 48.92818 73.271913 49.174259 73.517993 C 49.42034 73.764073 49.660558 74.01638 49.894629 74.274019 C 50.1287 74.53166 50.356696 74.794885 50.578308 75.063635 C 50.79992 75.332387 51.01556 75.606395 51.224264 75.885807 C 51.432966 76.16522 51.635083 76.449877 51.830428 76.739502 C 52.025773 77.029127 52.21423 77.323781 52.395768 77.623169 C 52.577306 77.922557 52.751452 78.226557 52.918734 78.535258 C 53.086015 78.843959 53.246232 79.15717 53.398808 79.474736 C 53.551383 79.7923 53.696503 80.114588 53.833923 80.440568 C 53.971344 80.766548 54.101231 81.096227 54.223047 81.430172 C 54.240377 81.477681 54.254613 81.526683 54.271623 81.574349 L 54.271623 34.372062 L 103.12497 46.426624 L 103.12497 84.471847 C 103.31809 84.557769 103.51265 84.640977 103.70271 84.732296 C 104.02028 84.884871 104.33349 85.045088 104.64219 85.21237 C 104.95089 85.379651 105.25489 85.553797 105.55428 85.735335 C 105.85367 85.916874 106.14832 86.10533 106.43795 86.300675 C 106.72757 86.496021 107.01223 86.698137 107.29164 86.90684 C 107.57106 87.115543 107.84558 87.331184 108.11433 87.552795 C 108.38308 87.774407 108.64631 88.002404 108.90395 88.236475 C 109.16159 88.470545 109.41338 88.710764 109.65946 88.956844 C 109.90554 89.202924 110.14576 89.454713 110.37983 89.712354 C 110.6139 89.969994 110.84189 90.233218 111.06351 90.501969 C 111.28512 90.770721 111.50024 91.045245 111.70894 91.324658 C 111.91765 91.604071 112.11976 91.888211 112.31511 92.177836 C 112.51045 92.467461 112.69891 92.762115 112.88045 93.061503 C 113.06199 93.360891 113.23665 93.665408 113.40393 93.974109 C 113.57121 94.28281 113.73143 94.596021 113.884 94.913586 C 114.03658 95.231152 114.1817 95.552922 114.31912 95.878902 C 114.45654 96.204882 114.58591 96.535078 114.70773 96.869023 C 114.82954 97.202968 114.94355 97.54042 115.04931 97.881881 C 115.15507 98.223342 115.25306 98.568949 115.34231 98.917476 C 115.36019 98.987287 115.37368 99.05875 115.39089 99.128833 L 115.39089 23.374801 C 115.39089 18.753784 112.69327 17.720438 109.89252 17.029968 L 48.984607 2.0143473 C 48.540292 1.9048112 48.074624 1.8464751 47.605363 1.8432983 z " />
  <rect
     style="fill:url(#radialGradient7128);fill-opacity:1;stroke:none;stroke-width:1.68711;stroke-linecap:round;stroke-linejoin:round"
     id="rect6475"
     width="43.566132"
     height="43.566132"
     x="11.974424"
     y="67.152046"
     ry="21.783066" />
  <rect
     style="fill:url(#radialGradient7343);fill-opacity:1;stroke:none;stroke-width:1.68711;stroke-linecap:round;stroke-linejoin:round"
     id="rect6477"
     width="43.566132"
     height="43.566132"
     x="72.421638"
     y="82.486809"
     ry="21.783066" />
</svg>
