<?xml version="1.0" encoding="UTF-8" standalone="no"?>
<!-- Created with Inkscape (http://www.inkscape.org/) -->

<svg
   width="256mm"
   height="256mm"
   viewBox="0 0 256 256"
   version="1.1"
   id="svg12381"
   xmlns:xlink="http://www.w3.org/1999/xlink"
   xmlns="http://www.w3.org/2000/svg"
   xmlns:svg="http://www.w3.org/2000/svg">
  <defs
     id="defs12378">
    <linearGradient
       xlink:href="#linearGradient6412"
       id="linearGradient11309"
       gradientUnits="userSpaceOnUse"
       x1="0"
       y1="261.117"
       x2="522.23297"
       y2="261.117" />
    <linearGradient
       id="linearGradient6412">
      <stop
         style="stop-color:#5470ed;stop-opacity:1;"
         offset="0"
         id="stop6408" />
      <stop
         style="stop-color:#6e85f5;stop-opacity:1;"
         offset="1"
         id="stop6410" />
    </linearGradient>
    <linearGradient
       xlink:href="#linearGradient6412"
       id="linearGradient13010"
       gradientUnits="userSpaceOnUse"
       x1="0"
       y1="261.117"
       x2="522.23297"
       y2="261.117" />
    <linearGradient
       xlink:href="#linearGradient6412"
       id="linearGradient13012"
       gradientUnits="userSpaceOnUse"
       x1="0"
       y1="261.117"
       x2="522.23297"
       y2="261.117" />
    <linearGradient
       xlink:href="#linearGradient6412"
       id="linearGradient13014"
       gradientUnits="userSpaceOnUse"
       x1="0"
       y1="261.117"
       x2="522.23297"
       y2="261.117" />
    <linearGradient
       xlink:href="#linearGradient6412"
       id="linearGradient13016"
       gradientUnits="userSpaceOnUse"
       x1="0"
       y1="261.117"
       x2="522.23297"
       y2="261.117" />
    <linearGradient
       xlink:href="#linearGradient6412"
       id="linearGradient13018"
       gradientUnits="userSpaceOnUse"
       x1="0"
       y1="261.117"
       x2="522.23297"
       y2="261.117" />
    <linearGradient
       xlink:href="#linearGradient6412"
       id="linearGradient13020"
       gradientUnits="userSpaceOnUse"
       x1="0"
       y1="261.117"
       x2="522.23297"
       y2="261.117" />
    <linearGradient
       xlink:href="#linearGradient6412"
       id="linearGradient13022"
       gradientUnits="userSpaceOnUse"
       x1="0"
       y1="261.117"
       x2="522.23297"
       y2="261.117" />
    <linearGradient
       xlink:href="#linearGradient6412"
       id="linearGradient13024"
       gradientUnits="userSpaceOnUse"
       x1="0"
       y1="261.117"
       x2="522.23297"
       y2="261.117" />
    <linearGradient
       xlink:href="#linearGradient6412"
       id="linearGradient13026"
       gradientUnits="userSpaceOnUse"
       x1="0"
       y1="261.117"
       x2="522.23297"
       y2="261.117" />
    <linearGradient
       xlink:href="#linearGradient6412"
       id="linearGradient13028"
       gradientUnits="userSpaceOnUse"
       x1="0"
       y1="261.117"
       x2="522.23297"
       y2="261.117" />
    <linearGradient
       xlink:href="#linearGradient6412"
       id="linearGradient13030"
       gradientUnits="userSpaceOnUse"
       x1="0"
       y1="261.117"
       x2="522.23297"
       y2="261.117" />
  </defs>
  <g
     id="layer1">
    <g
       style="fill:url(#linearGradient11309);fill-opacity:1"
       id="g11285"
       transform="matrix(0.46402412,0,0,0.46402412,6.8356423,6.8354103)">
      <g
         id="g11283"
         style="fill:url(#linearGradient13030);fill-opacity:1">
	<g
   id="g11281"
   style="fill:url(#linearGradient13028);fill-opacity:1">
		<g
   id="g11267"
   style="fill:url(#linearGradient13014);fill-opacity:1">
			<path
   d="M 346.35,41.163 C 335.495,30.796 321.274,25.085 306.305,25.085 c -10.832,0 -21.445,3.063 -30.689,8.857 L 116.455,133.703 H 58.354 c -31.9,0 -57.854,25.952 -57.854,57.853 v 138.918 c 0,31.9 25.953,57.854 57.854,57.854 h 57.773 l 159.487,99.965 c 9.244,5.795 19.857,8.857 30.691,8.857 14.969,0 29.189,-5.71 40.047,-16.078 5.543,-5.293 9.908,-11.525 12.979,-18.523 3.227,-7.353 4.861,-15.184 4.861,-23.275 V 261.22 261.015 82.963 c 0,-8.094 -1.635,-15.925 -4.861,-23.278 -3.071,-6.996 -7.438,-13.228 -12.981,-18.522 z m -24.996,219.852 v 0.205 178.052 c 0,8.803 -7.227,15.037 -15.049,15.037 -2.664,0 -5.398,-0.724 -7.939,-2.316 L 137.222,350.989 c -5.736,-3.595 -12.368,-5.502 -19.138,-5.502 h -59.73 c -8.292,0 -15.014,-6.722 -15.014,-15.014 V 191.556 c 0,-8.291 6.722,-15.013 15.014,-15.013 h 60.059 c 6.77,0 13.4,-1.907 19.137,-5.502 L 298.365,70.242 c 2.541,-1.593 5.273,-2.316 7.939,-2.316 7.822,0 15.049,6.236 15.049,15.038 v 178.051 z"
   id="path11263"
   style="fill:url(#linearGradient13010);fill-opacity:1" />

			<path
   d="m 306.305,497.649 c -10.929,0 -21.634,-3.089 -30.957,-8.934 L 115.983,388.826 H 58.354 C 26.177,388.827 0,362.649 0,330.474 V 191.556 C 0,159.38 26.177,133.203 58.354,133.203 h 57.958 L 275.35,33.519 c 9.325,-5.844 20.029,-8.934 30.955,-8.934 15.096,0 29.44,5.759 40.391,16.216 5.591,5.34 9.995,11.625 13.093,18.683 3.254,7.415 4.903,15.314 4.903,23.479 v 356.309 c 0,8.163 -1.649,16.062 -4.903,23.477 -3.099,7.062 -7.503,13.348 -13.091,18.684 -10.952,10.458 -25.297,16.216 -40.393,16.216 z M 58.354,134.203 C 26.729,134.203 1,159.931 1,191.556 v 138.918 c 0,31.625 25.729,57.354 57.354,57.354 h 57.917 l 0.122,0.076 159.487,99.965 c 9.164,5.745 19.685,8.781 30.426,8.781 14.838,0 28.938,-5.661 39.701,-15.939 5.493,-5.245 9.821,-11.423 12.866,-18.363 3.198,-7.287 4.819,-15.05 4.819,-23.074 V 82.963 c 0,-8.025 -1.621,-15.79 -4.819,-23.077 C 355.829,52.949 351.5,46.772 346.005,41.524 335.242,31.245 321.144,25.585 306.306,25.585 c -10.738,0 -21.259,3.037 -30.424,8.781 l -159.283,99.837 z m 247.951,320.606 c -2.87,0 -5.708,-0.827 -8.205,-2.393 L 136.956,351.413 c -5.664,-3.55 -12.189,-5.426 -18.872,-5.426 h -59.73 c -8.554,0 -15.514,-6.959 -15.514,-15.514 V 191.556 c 0,-8.554 6.959,-15.513 15.514,-15.513 h 60.059 c 6.682,0 13.207,-1.876 18.871,-5.426 L 298.1,69.818 c 2.497,-1.565 5.335,-2.393 8.205,-2.393 8.573,0 15.549,6.97 15.549,15.538 v 356.308 c 0,8.568 -6.976,15.538 -15.549,15.538 z M 58.354,177.043 c -8.003,0 -14.514,6.51 -14.514,14.513 v 138.918 c 0,8.003 6.511,14.514 14.514,14.514 h 59.73 c 6.871,0 13.58,1.929 19.403,5.578 l 161.144,101.003 c 2.338,1.466 4.991,2.24 7.674,2.24 8.022,0 14.549,-6.521 14.549,-14.537 V 82.963 c 0,-8.016 -6.526,-14.538 -14.549,-14.538 -2.683,0 -5.336,0.774 -7.674,2.24 l -160.817,100.8 c -5.824,3.649 -12.533,5.578 -19.402,5.578 z"
   id="path11265"
   style="fill:url(#linearGradient13012);fill-opacity:1" />

		</g>

		<g
   id="g11273"
   style="fill:url(#linearGradient13020);fill-opacity:1">
			<path
   d="m 424.273,156.536 c -5.266,-10.594 -18.125,-14.911 -28.715,-9.646 -10.594,5.266 -14.912,18.123 -9.646,28.716 12.426,24.995 18.992,54.604 18.992,85.626 0,31.506 -6.754,61.487 -19.533,86.705 -5.348,10.553 -1.129,23.442 9.424,28.79 3.104,1.572 6.408,2.317 9.664,2.317 7.816,0 15.35,-4.294 19.125,-11.742 15.807,-31.191 24.16,-67.869 24.16,-106.07 0.002,-37.604 -8.115,-73.808 -23.471,-104.696 z"
   id="path11269"
   style="fill:url(#linearGradient13016);fill-opacity:1" />

			<path
   d="m 404.459,379.545 c -3.456,0 -6.784,-0.798 -9.89,-2.371 -10.782,-5.464 -15.108,-18.681 -9.645,-29.462 12.744,-25.147 19.479,-55.052 19.479,-86.479 0,-30.948 -6.549,-60.48 -18.939,-85.404 -2.606,-5.243 -3.016,-11.188 -1.15,-16.738 1.864,-5.55 5.778,-10.042 11.021,-12.648 3.064,-1.523 6.341,-2.296 9.739,-2.296 8.388,0 15.916,4.662 19.646,12.167 15.391,30.959 23.524,67.239 23.522,104.919 0,38.28 -8.373,75.037 -24.214,106.296 -3.755,7.411 -11.255,12.016 -19.569,12.016 z m 0.616,-234.399 c -3.242,0 -6.369,0.737 -9.294,2.191 -5.004,2.487 -8.74,6.774 -10.52,12.071 -1.779,5.297 -1.39,10.97 1.098,15.974 12.459,25.062 19.045,54.748 19.045,85.849 0,31.584 -6.773,61.645 -19.587,86.931 -5.215,10.29 -1.086,22.904 9.203,28.118 2.965,1.502 6.141,2.264 9.438,2.264 7.936,0 15.094,-4.395 18.679,-11.468 15.771,-31.12 24.106,-67.721 24.106,-105.845 0.002,-37.526 -8.096,-73.652 -23.418,-104.474 -3.559,-7.161 -10.744,-11.611 -18.75,-11.611 z"
   id="path11271"
   style="fill:url(#linearGradient13018);fill-opacity:1" />

		</g>

		<g
   id="g11279"
   style="fill:url(#linearGradient13026);fill-opacity:1">
			<path
   d="m 456.547,88.245 c -10.594,5.266 -14.912,18.122 -9.646,28.716 20.932,42.105 31.994,91.864 31.994,143.897 0,52.847 -11.381,103.237 -32.912,145.727 -5.348,10.552 -1.129,23.441 9.424,28.788 3.104,1.573 6.408,2.318 9.666,2.318 7.814,0 15.35,-4.294 19.123,-11.743 24.559,-48.462 37.539,-105.549 37.539,-165.09 0,-58.615 -12.611,-114.968 -36.473,-162.968 -5.266,-10.593 -18.121,-14.913 -28.715,-9.645 z"
   id="path11275"
   style="fill:url(#linearGradient13022);fill-opacity:1" />

			<path
   d="m 465.072,438.19 c -3.458,0 -6.787,-0.798 -9.893,-2.372 -5.223,-2.646 -9.102,-7.168 -10.923,-12.732 -1.821,-5.564 -1.367,-11.506 1.279,-16.728 21.496,-42.42 32.858,-92.733 32.858,-145.501 0,-51.958 -11.045,-101.64 -31.941,-143.674 -5.381,-10.824 -0.952,-24.006 9.871,-29.386 3.065,-1.524 6.343,-2.297 9.742,-2.297 8.386,0 15.912,4.663 19.643,12.167 23.896,48.067 36.525,104.498 36.525,163.19 0,59.619 -12.999,116.785 -37.593,165.315 -3.753,7.414 -11.252,12.018 -19.568,12.018 z M 466.066,86.5 c -3.243,0 -6.371,0.738 -9.297,2.193 -5.004,2.487 -8.74,6.774 -10.52,12.071 -1.78,5.297 -1.389,10.97 1.098,15.974 20.966,42.172 32.047,92.008 32.047,144.12 0,52.924 -11.399,103.394 -32.966,145.952 -2.526,4.984 -2.96,10.654 -1.222,15.965 1.738,5.311 5.44,9.626 10.425,12.151 2.965,1.503 6.141,2.265 9.44,2.265 7.937,0 15.094,-4.395 18.677,-11.469 24.523,-48.392 37.485,-105.401 37.485,-164.864 0,-58.54 -12.594,-114.816 -36.42,-162.745 C 481.253,90.949 474.069,86.5 466.066,86.5 Z"
   id="path11277"
   style="fill:url(#linearGradient13024);fill-opacity:1" />

		</g>

	</g>

</g>
    </g>
  </g>
</svg>
